<?xml version="1.0" encoding="UTF-8"?>
<svg width="3051px" height="1061px" viewBox="0 0 3051 1061" version="1.1" xmlns="http://www.w3.org/2000/svg" xmlns:xlink="http://www.w3.org/1999/xlink">
    <title>Artboard</title>
    <g id="Artboard" stroke="none" stroke-width="1" fill="none" fill-rule="evenodd">
        <g id="RHEO_COLOR_2">
            <path d="M1000.4,455.09 C1004.3043,479.899022 1006.26028,504.975641 1006.25,530.09 C1006.38,760.3 841.54,957.53 614.97,998.26 C388.4,1038.99 165.19,911.54 85.12,695.7 C5.05,479.86 91.12,237.7 289.48,120.79 C487.84,3.88 741.39,45.93 891.42,220.53 C907.88,211.76 924.33,202.25 940.42,193.84 C776.64,-5.39 493.3,-57.86 269.05,69.46 C44.8,196.78 -55.35,467 31.76,709.69 C118.87,952.38 368,1097.27 622,1052.93 C876,1008.59 1061.35,787.93 1061.09044,530.05 C1061.13536,495.238659 1057.70501,460.509757 1050.85,426.38 L1000.4,455.09 Z" id="Path" fill="#EC5327" fill-rule="nonzero"></path>
            <path d="M916.27,395.84 C916.27,426.127296 891.717296,450.68 861.43,450.68 C831.142704,450.68 806.59,426.127296 806.59,395.84 C806.59,365.552704 831.142704,341 861.43,341 C891.715009,341.005521 916.264479,365.554991 916.27,395.84 Z M888.97,395.84 C888.97,380.630078 876.639922,368.3 861.43,368.3 C846.220078,368.3 833.89,380.630078 833.89,395.84 C833.89,411.049922 846.220078,423.380016 861.43,423.380016 C868.739259,423.387962 875.751875,420.48995 880.923117,415.324335 C886.094359,410.15872 889,403.149263 889,395.84 L888.97,395.84 Z" id="Shape" fill="#FFFFFF"></path>
            <path d="M928.74,441.69 L1074.33,360.81 L1071.77,353.86 L935.44,429.71 C933.553304,433.887553 931.311755,437.895577 928.74,441.69 Z M963.89,476.69 L878.32,524.05 L850.62,476.26 C847.952404,475.884971 845.305642,475.37431 842.69,474.73 L850.89,489.86 L785.21,565.67 L753,536.22 L823.13,467.12 C821.13,466.02 819.173333,464.833333 817.26,463.56 L747.63,529.94 L712.34,494.83 L788.69,430.06 C787.78,428.06 786.93,426.06 786.18,424.06 L707.41,490.86 L665.72,449.36 L661.45,445.47 L668.64,446.61 C692.100985,446.584309 714.580439,437.191421 731.08516,420.517709 C747.589881,403.843997 756.753296,381.27003 756.54,357.81 L756.44,356.81 L782,385.84 C782.491467,382.102135 783.243295,378.403142 784.25,374.77 L756.53,343.62 C756.649475,343.328431 756.649475,343.001569 756.53,342.71 L1013.98,201.71 L1011.42,194.71 L755.19,335.85 C751.609589,323.064552 745.274757,311.21746 736.63,301.14 C752.91,294.93 800.97,269.93 855.83,240.31 C772.762151,147.147856 653.610977,94.2519103 528.796365,95.1267611 C403.981753,96.001612 285.583767,150.562588 203.83,244.88 L267.09,285.66 L429.64,297.54 C415.75,304.67 402.58,311.44 393.07,316.92 L263.25,307.23 C261.447033,307.04928 259.702425,306.49046 258.13,305.59 L190.3,261.89 C139.011248,327.150537 107.590463,405.794495 99.79,488.43 L129.59,506.72 C131.161368,507.592305 132.483317,508.852287 133.43,510.38 L177.43,583.38 C180.208879,587.982156 184.257778,591.683808 189.09,594.04 L242.57,620.04 C243.199731,620.352563 243.760701,620.787739 244.22,621.32 L250.43,613.1 C257.433654,602.789845 269.563869,597.197104 281.952401,598.566323 C294.340932,599.935543 304.957038,608.042279 309.540134,619.633038 C314.123231,631.223797 311.922051,644.39861 303.82,653.87 L278.72,680.37 C270.94,686.22 253.44,678.51 249.34,674.12 L286.9,626.12 C288.3,624.7 287.9,622.42 286.45,621 C285.692868,620.280531 284.684357,619.88574 283.64,619.9 C282.666145,619.901874 281.737631,620.311726 281.08,621.03 L243.66,668.83 C237.14,661.72 230.09,650.21 229.77,640.56 L231.23,638.56 L169.61,608.56 C167.636278,607.675803 165.979212,606.210608 164.86,604.36 L117.92,526.42 C116.941524,524.773629 115.566371,523.398476 113.92,522.42 L98.17,513.29 L98.17,530.11 C94.9665982,687.529125 177.116009,834.380857 312.936126,914.029703 C448.756242,993.67855 617.023758,993.67855 752.843874,914.029703 C888.663991,834.380857 970.813402,687.529125 967.61,530.11 C967.480471,512.256651 966.238061,494.428741 963.89,476.73 L963.89,476.69 Z M615.52,281.79 L615.52,281.79 C660.81,291.45 711.14,302.14 727.92,302.63 L729.18,303.98 C751.09,327.53 755.18,361.98 742.36,391.43 C729.51683,420.929037 700.403595,440.004038 668.23,440.000001 C661.69,440.000001 660.88,439.78 654.55,438.16 L651.17,436.68 L539.17,381.68 L535.51,316.22 L625.84,350.96 C625.650013,353.700044 625.650013,356.449956 625.84,359.19 C625.815521,381.415607 642.281251,400.21087 664.316908,403.11053 C686.352565,406.01019 707.12009,392.11443 712.846193,370.639096 C718.572296,349.163763 707.480065,326.773036 686.926011,318.316734 C666.371956,309.860432 642.734369,317.962695 631.69,337.25 L535.51,300.68 L533.68,266.31 C541.81,266.11 576.94,273.6 615.52,281.83 L615.52,281.79 Z M646.1,359 C645.074301,368.31133 651.692789,376.729604 660.983163,377.930387 C670.273537,379.131169 678.814898,372.672309 680.190338,363.406183 C681.565779,354.140057 675.268835,345.478636 666.03024,343.929025 C656.791646,342.379414 648.013232,348.51221 646.29,357.72 L646.1,359 Z M530.54,377.26 L528.19,377.77 L472.4,394.27 L438.4,372.88 L439.19,357.13 C439.261792,355.569583 440.199661,354.180147 441.62,353.53 L527.26,314.36 L530.54,377.26 Z M524.88,266.26 L524.69,267.54 L526.34,298.62 L525.06,298.62 L429.25,342.5 C426.762073,343.617872 425.079847,346.001345 424.86,348.72 L424.86,364.1 L383.53,338 C400.72,325 500.19,276.88 524.88,266.28 L524.88,266.26 Z M379.25,345.26 L423,372.88 L420.26,425.17 C414.772721,427.612975 411.243606,433.063496 411.26,439.07 C411.19799,446.587804 416.526566,453.071902 423.913878,454.467916 C431.301189,455.863931 438.628468,451.771469 441.314112,444.749465 C443.999757,437.727461 441.273494,429.789908 434.84,425.9 L437.04,381.83 L468.31,401.58 C468.31,412.92 468.7,438.5 468.97,455.91 L468.97,456.05 C469.11,464.96 469.21,471.71 469.21,473.26 C463.451053,492.242088 445.066698,504.496928 425.33,502.51 C404.324451,505.377078 384.649148,491.599574 380.16,470.88 C377.746879,429.045195 377.443161,387.115372 379.25,345.25 L379.25,345.26 Z M308.75,664.89 L309.85,663.79 L324.85,644.05 C331.687631,633.339396 343.976951,627.395671 356.618444,628.685204 C369.259937,629.974737 380.096009,638.277437 384.630175,650.148055 C389.164342,662.018672 386.622732,675.431184 378.06,684.82 L352.06,719.01 L351.06,720.37 L348.43,723.37 L348.43,723.37 L346.57,724.67 C333.09,731.25 324.13,729.43 312.26,720.41 L358.18,658.41 C359.57,656.99 358.79,654.41 357.4,653 C356.744261,652.278807 355.814738,651.86766 354.84,651.86766 C353.865262,651.86766 352.935739,652.278807 352.28,653 L306.14,715.45 C300.05,708.72 291.27,697.45 290.48,688.45 L308.75,664.89 Z M221.93,696.78 C207.16,684.45 210.69,662.7 225.81,646.55 C227.81,655.32 231.11,667.55 240.81,675.93 C247.060362,681.528588 254.630387,685.447796 262.81,687.32 C263.756032,687.565441 264.72413,687.716183 265.7,687.77 C268.195709,687.921729 270.699231,687.888304 273.19,687.67 L271.73,689.49 C258.91,705.75 239.4,712.17 221.93,696.77 L221.93,696.78 Z M334.31,741.43 C328.88,749.43 325.31,753.35 316.45,754.49 C311.05,755.19 302.75,754.49 297.81,752.23 C283.73,745.66 279.26,739.31 275.19,728.99 C270.6,717.39 273.39,707.99 281.51,698.48 L286.09,693.79 C287.73,700.95 292.65,711.41 296.94,716.26 C300.48,720.26 304.14,723.82 306.79,725.36 C313.11,729.03 316.48,731.09 326.95,733.27 C328.418678,733.562729 329.905356,733.756499 331.4,733.85 C334.179015,734.109889 336.980254,733.998916 339.73,733.52 L334.31,741.43 Z M414.8,779.54 C408.456266,793.059983 394.528985,801.364209 379.618748,800.517036 C364.70851,799.669864 351.811489,789.841529 347.04,775.69 C342.27,761.53 346.79,746.69 358.14,736.94 C360.508403,747.678208 366.193121,757.39995 374.39,764.73 L377.5,767.29 C387.071973,774.552751 398.764622,778.47021 410.78,778.44 L415.17,778.44 L414.8,779.54 Z M385,764.24 L385.86,763.38 L439,694.13 C439.718274,693.472369 440.128126,692.543855 440.13,691.57 C440.04971,690.26778 439.571491,689.021619 438.76,688 C437.973643,687.291147 436.948592,686.905413 435.89,686.92 C434.89,686.92 433.89,688.08 433.21,688.8 L379.63,758.74 C369.16,751.34 364.9,740 363.93,729.28 L386.27,698.71 L387.36,697.61 L403.45,676.61 C409.894676,663.213257 423.80789,655.05109 438.646235,655.962179 C453.48458,656.873268 466.294715,666.676276 471.052011,680.760832 C475.809308,694.845387 471.5669,710.408179 460.32,720.13 L432.32,756.7 L431.23,757.8 L422.23,769.5 C408.65,773.37 396.54,772.53 385,764.24 Z M486.65,819.57 C479.811542,830.233661 467.563663,836.153121 454.959162,834.886337 C442.354662,833.619553 431.529677,825.381212 426.95,813.57 C422.37,801.76 426.46,786.85 434.95,777.42 C437.56,787.42 443.56,797.99 451.21,804.93 L454.5,807.67 C464.1,814.87 473.59,818.67 485.58,818.67 L486.68,818.67 L486.65,819.57 Z M800.85,680.35 C800.85,680.4 800.76,680.45 800.72,680.51 L800.19,681.27 C791.69,691.75 778.46,696.88 764.19,697.43 L761.45,697.43 C760.11577,708.578809 755.393302,719.049912 747.92,727.43 C740.373451,736.140914 729.617408,741.41971 718.11,742.06 C718.495882,756.369315 713.467559,770.297199 704.03,781.06 C695.693513,790.828825 683.409428,796.335737 670.57,796.06 C662.822454,796.078365 655.158438,794.459686 648.08,791.31 C646.496842,801.875327 641.9314,811.76943 634.92,819.83 C626.474728,829.561881 614.153393,835.054304 601.27,834.83 C591.86827,834.785111 582.628595,832.37805 574.4,827.83 L510.4,789.61 L493.76,811.37 C480.83,813.52 470.49,811.37 460.09,803.37 L497.77,752.61 C498.6846,751.663246 499.024638,750.300476 498.662025,749.035033 C498.299412,747.769589 497.289238,746.793723 496.012025,746.475033 C494.734812,746.156343 493.3846,746.543246 492.47,747.49 L454.1,798.13 C447.33,790.93 440.77,780.94 439.46,771.13 L460.85,743.13 C472.042081,727.308655 493.86077,723.399102 509.85,734.35 C520.750988,743.075724 525.128343,757.62844 520.85,770.92 L584.85,809.14 C595.444043,815.518236 608.995946,814.019294 617.94,805.48 C618.008586,805.411372 618.072087,805.337845 618.13,805.26 C622.384227,800.092959 624.17667,793.329074 623.039606,786.733329 C621.902541,780.137585 617.94877,774.364311 612.21,770.92 L498.55,702.72 C494.319594,701.211001 491.431534,697.281602 491.254233,692.793621 C491.076932,688.30564 493.646008,684.160652 497.744187,682.322627 C501.842367,680.484601 506.646379,681.322772 509.88,684.44 L654.7,771.1 C665.23,777.46 675.7,781.57 686.49,773.51 C692.62,767 697.78,764.22 698.4,751.79 C698.64,746.89 696.4,742.79 692.34,739.45 C691.5,738.77 678.51,729.17 677.57,728.63 L548.13,645.08 C542.951856,641.980019 541.238391,635.286798 544.29,630.08 C547.515206,624.93734 554.259427,623.315706 559.47,626.43 L698.58,717.53 C709.116801,723.886384 722.607201,722.386084 731.49,713.87 C736.17,709.3 738.21,706.21 737.35,696.79 C737.12,694.33 732.91,688.05 730.96,686.4 L729.21,684.91 L591.21,580.39 C586.780332,576.834365 585.786362,570.490729 588.916186,565.750614 C592.046011,561.010498 598.270234,559.432923 603.28,562.11 L748,670.73 L749,671.39 C750.384919,672.250322 751.832296,673.005766 753.33,673.65 C764.6,678.93 776.65,674.17 785.45,665.01 C796.03,653.35 796.24,637.75 786.17,627.01 L629.59,482.59 L498.91,402.31 C497.740924,402.417471 496.562116,402.295174 495.44,401.95 L523.6,392.44 L640,464.31 C640.968316,464.814728 641.835971,465.492584 642.56,466.31 L800.56,612.03 C819.22738,630.930386 819.360677,661.286406 800.86,680.35 L800.85,680.35 Z M863,534.1 C860,562.49 846.44,587.96 827.26,609.1 L790.82,570.64 L855.06,496.29 L872.06,526.82 L863,534.1 Z M940.86,379.81 L973.17,361.9 L967.87,356.42 L939.26,373.52 C939.91,375.59 940.45,377.68 940.9,379.81 L940.86,379.81 Z M997.13,282.37 L909.33,331.2 C911.33,332.69 913.33,334.26 915.23,335.93 L997.13,290.41 C997.343328,287.734727 997.356699,285.047263 997.17,282.37 L997.13,282.37 Z" id="Shape" fill="#FFFFFF"></path>
            <circle id="Oval" stroke="#EE5226" stroke-width="18" cx="861.96" cy="396.44" r="80.66"></circle>
            <path d="M988.790004,354.27 C988.794045,359.302418 985.765703,363.841562 981.117515,365.770189 C976.469327,367.698816 971.117022,366.636972 967.557133,363.079945 C963.997244,359.522917 962.931097,354.171468 964.855985,349.521731 C966.780873,344.871993 971.31758,341.84 976.35,341.84 C983.216519,341.84 988.78448,347.403483 988.790004,354.27 Z" id="Path" fill="#EC5327" fill-rule="nonzero"></path>
            <path d="M1089.14,354.45 C1089.05406,360.370368 1084.80402,365.408302 1078.98272,366.490283 C1073.16143,367.572264 1067.385,364.39791 1065.1775,358.903816 C1062.97,353.409722 1064.94427,347.12117 1069.89586,343.874652 C1074.84745,340.628133 1081.40169,341.324954 1085.56,345.54 C1087.89865,347.910559 1089.18833,351.120361 1089.14,354.45 L1089.14,354.45 Z" id="Path" fill="#EC5327" fill-rule="nonzero"></path>
            <path d="M1024.3,197.4 C1024.38505,202.533906 1021.34875,207.206705 1016.62304,209.214664 C1011.89733,211.222622 1006.42604,210.164707 1002.78948,206.539841 C999.152924,202.914974 998.077393,197.447122 1000.07012,192.71497 C1002.06285,187.982818 1006.72585,184.931483 1011.86,185 C1018.73042,185 1024.3,190.569578 1024.3,197.44 L1024.3,197.4 Z" id="Path" fill="#EC5327" fill-rule="nonzero"></path>
            <path d="M1005.41,288.47 C1005.46633,293.600705 1002.40824,298.253932 997.676252,300.237772 C992.944267,302.221611 987.482081,301.140427 983.862666,297.503513 C980.243252,293.8666 979.188425,288.399263 981.195065,283.676901 C983.201704,278.954539 987.869627,275.918929 993,276 C996.298374,275.999999 999.46151,277.310957 1001.79287,279.644198 C1004.12424,281.977438 1005.43265,285.141627 1005.43,288.44 L1005.41,288.47 Z" id="Path" fill="#EC5327" fill-rule="nonzero"></path>
            <polygon id="Path" fill="#FFFFFF" fill-rule="nonzero" points="2075.45 756 1954 756 1954 578.2 1796.6 578.2 1796.6 756 1675.16 756 1675.16 303.42 1796.6 303.42 1796.6 474.42 1954 474.42 1954 303.42 2075.45 303.42"></polygon>
            <polygon id="Path" fill="#FFFFFF" fill-rule="nonzero" points="2321.05 484.57 2513.73 484.57 2513.73 568.7 2321.05 568.7 2321.05 656.22 2531.37 656.22 2531.37 756 2199.61 756 2199.61 303.42 2527.3 303.42 2527.3 403.15 2321.05 403.15"></polygon>
            <path d="M2629.73974,520.53 L2629.73974,492.71 C2629.73355,490.445582 2629.84705,488.182412 2630.08,485.93 C2630.3,483.67 2630.42,481.41 2630.42,479.14 C2630.4176,474.608092 2630.64455,470.078965 2631.1,465.57 C2631.54,461.06 2632,456.57 2632.45,452 C2632.4488,449.735709 2632.56228,447.472811 2632.79,445.22 C2633.01,442.96 2633.34333,440.473333 2633.79,437.76 C2634.24,435.5 2634.57,433.24 2634.79,430.97 C2635.01,428.7 2635.35,426.45 2635.79,424.19 C2639.87,398.856667 2647.67333,377.936667 2659.2,361.43 C2670.45363,345.141804 2686.44244,332.706841 2705,325.81 C2723.79814,318.047172 2743.34884,312.249653 2763.34,308.51 C2784.15933,304.622621 2805.26473,302.465255 2826.44,302.06 L2840.01,302.06 C2878.91,302.06 2912.15333,305.453333 2939.74,312.24 C2967.32667,319.026667 2988.81333,328.976667 3004.2,342.09 C3020.02,355.223333 3031.78,375.353333 3039.48,402.48 C3047.18,429.606667 3051.02333,463.526667 3051.01003,504.24 C3051.01003,546.306667 3048.63667,583.17 3043.89,614.83 C3039.14333,646.49 3032.24333,673.176667 3023.19,694.89 C3014.14333,716.596667 2994.69667,732.766667 2964.85,743.4 C2935.00333,754.033333 2894.52,759.346667 2843.4,759.340006 L2832.6,759.340006 C2830.58981,758.919522 2828.54355,758.695137 2826.49,758.67 L2809.49,758.67 C2807.4809,758.241445 2805.43417,758.013659 2803.38,757.99 L2798,757.99 C2781.12469,757.568687 2764.32097,755.637648 2747.79,752.22 C2731.74529,748.906097 2716.0662,744.01915 2700.98,737.63 C2685.96539,731.5835 2672.76125,721.771659 2662.64,709.14 C2652.46667,696.473333 2644.66667,680.643333 2639.24,661.65 C2636.9992,654.067807 2635.18634,646.36566 2633.81,638.58 C2632.42801,630.725305 2631.52302,622.794118 2631.1,614.83 C2630.64,607.15 2630.30667,599.35 2630.1,591.43 C2629.89333,583.51 2629.78,575.48 2629.76,567.34 L2629.76,520.53 L2629.73974,520.53 Z M2753.9,557.84 C2753.75379,572.359781 2754.6595,586.871082 2756.61,601.26 C2758.41,613.48 2760.89667,623.656667 2764.07,631.79 C2767.69,640.39 2774.92667,646.723333 2785.78,650.79 C2796.63333,654.856667 2811.56,656.893333 2830.56,656.9 C2851.36,656.9 2868.32333,655.316667 2881.45,652.15 C2894.57667,648.983333 2903.84667,644.006667 2909.26,637.22 C2914.68667,630.44 2918.87,620.603333 2921.81,607.71 C2924.75,594.816667 2926.22,578.646667 2926.22,559.2 L2926.22,534.77 C2926.23998,531.817709 2926.46721,528.870464 2926.9,525.95 L2926.9,493.39 C2926.9,478.463333 2925.77,465.463333 2923.51,454.39 C2921.25,443.316667 2918.08,434.153333 2914,426.9 C2909.48,420.12 2902.13,414.92 2891.95,411.3 C2881.77,407.68 2868.54,405.87 2852.26,405.87 C2828.74,405.87 2809.97,407.453333 2795.95,410.62 C2781.93,413.786667 2772.65667,418.533333 2768.13,424.86 C2763.61,431.2 2760.22,443.073333 2757.96,460.48 C2755.7,477.886667 2754.34333,500.843333 2753.89,529.35 L2753.89,557.84 L2753.9,557.84 Z" id="Shape" fill="#FFFFFF" fill-rule="nonzero"></path>
            <path d="M1376,301.83 C1417.68,301.83 1451.63333,305.91 1477.86,314.07 C1504.08667,322.23 1523.31667,335.873333 1535.55,355 C1547.80333,374.126667 1553.93,401.096667 1553.93,435.91 C1553.93,454.83 1551.24333,472.02 1545.87,487.48 C1540.79286,502.5512 1531.23293,515.711803 1518.47,525.2 C1505.57667,534.866667 1487.95667,540.99 1465.61,543.57 L1465.61,547.44 C1474.679,548.570219 1483.50019,551.185156 1491.72,555.18 C1500.95333,559.48 1509.54667,566.463333 1517.5,576.13 C1525.45333,585.796667 1531.15,599.01 1534.59,615.77 L1571.33,753.09 L1444.33,753.09 L1412.74,619.64 C1409.72667,605.893333 1405,596.76 1398.56,592.24 C1392.12,587.72 1382.66667,585.466667 1370.2,585.48 C1339.25333,585.046667 1313.68,584.83 1293.48,584.83 C1273.28,584.83 1256.19667,584.616667 1242.23,584.19 C1228.23,583.756667 1215.01333,583.11 1202.58,582.25 L1204.51,497.8 L1373.42,497.8 C1388.88667,497.8 1400.81333,496.296667 1409.2,493.29 C1417.2044,490.623476 1423.66756,484.630563 1426.93,476.85 C1430.35667,468.896667 1432.07333,457.83 1432.08,443.65 C1432.08,429.036667 1430.36333,417.86 1426.93,410.12 C1423.49667,402.38 1417.58667,397.006667 1409.2,394 C1400.82,390.993333 1388.89333,389.486667 1373.42,389.48 C1330.86667,389.48 1294.86667,389.696667 1265.42,390.13 C1235.97333,390.563333 1215.88333,391.206667 1205.15,392.06 L1195.48,308.25 C1214.38,306.11 1232.21667,304.606667 1248.99,303.74 C1265.76333,302.873333 1284.13667,302.336667 1304.11,302.13 C1324.09667,301.936667 1348.06,301.836667 1376,301.83 Z M1314.11,308.27 L1314.11,753.1 L1195.49,753.1 L1195.49,308.27 L1314.11,308.27 Z" id="Shape" fill="#FFFFFF" fill-rule="nonzero"></path>
        </g>
    </g>
</svg>